<svg xmlns="http://www.w3.org/2000/svg" height="24px" viewBox="0 -960 960 960" width="24px" fill="#e8eaed"><path d="M224.62-160q-27.62 0-46.12-18.5Q160-197 160-224.62v-510.76q0-27.62 18.5-46.12Q197-800 224.62-800h510.76q27.62 0 46.12 18.5Q800-763 800-735.38v510.76q0 27.62-18.5 46.12Q763-160 735.38-160H224.62ZM460-383.85H200v159.23q0 10.77 6.92 17.7 6.93 6.92 17.7 6.92H460v-183.85Zm40 0V-200h235.38q10.77 0 17.7-6.92 6.92-6.93 6.92-17.7v-159.23H500Zm-40-40v-185.38H200v185.38h260Zm40 0h260v-185.38H500v185.38ZM200-649.23h560v-86.15q0-10.77-6.92-17.7-6.93-6.92-17.7-6.92H224.62q-10.77 0-17.7 6.92-6.92 6.93-6.92 17.7v86.15Z"/></svg>