<svg xmlns="http://www.w3.org/2000/svg" height="24px" viewBox="0 -960 960 960" width="24px" fill="undefined"><path d="M480.13-120q-74.67 0-140.41-28.35-65.73-28.35-114.36-76.95-48.63-48.6-76.99-114.3Q120-405.3 120-480q0-74.77 28.04-139.96 28.04-65.19 77.42-114.58l28.31 28.31q-44 44-68.89 101.76Q160-546.72 160-480q0 134 93 227t227 93q134 0 227-93t93-227q0-67-24.88-124.62-24.89-57.61-68.89-101.61l28.31-28.31q49.38 49.39 77.42 114.58T840-479.67q0 74.21-28.34 139.95-28.34 65.73-76.92 114.36-48.58 48.63-114.26 76.99Q554.81-120 480.13-120ZM460-440v-400h40v400h-40Z"/></svg>