<?xml version="1.0" encoding="utf-8"?><!-- Uploaded to: SVG Repo, www.svgrepo.com, Generator: SVG Repo Mixer Tools -->
<svg fill="#EB2227" width="800px" height="800px" viewBox="0 0 24 24" xmlns="http://www.w3.org/2000/svg"><path d="M 11.988 0 a 11.85 11.85 0 0 0 -8.617 3.696 c 7.02 -0.875 11.401 -0.583 13.289 -0.34 c 3.752 0.583 3.558 3.404 3.558 3.404 L 8.237 19.112 c 2.299 0.22 6.897 0.366 13.796 -0.631 a 11.86 11.86 0 0 0 1.912 -6.469 C 23.945 5.374 18.595 0 11.988 0 Z m 0.232 4.31 c -2.451 -0.014 -5.772 0.146 -9.963 0.723 C 0.854 7.003 0.055 9.41 0.055 12.012 C 0.055 18.626 5.38 24 11.988 24 c 3.63 0 6.85 -1.63 9.053 -4.182 c -7.286 0.948 -11.813 0.631 -13.75 0.388 c -3.775 -0.56 -3.557 -3.404 -3.557 -3.404 L 15.691 4.474 a 38.635 38.635 0 0 0 -3.471 -0.163 Z"/></svg>