<?xml version="1.0" encoding="UTF-8"?>
<svg id="thermometer-temperature-svgrepo-com" xmlns="http://www.w3.org/2000/svg" width="400" height="800" viewBox="0 0 400 800">
    <g id="Group_4">
        <g id="Group_3">
            <path id="Path_1" d="M 50 50 L 50 100 L 100 100" fill="#1ad598"/>
            <path id="Path_2" d="M 50 50 L 50 100 L 100 100" transform="translate(100)" fill="#1ad598"/>
            <path d="M 50, 30   A 20,20 0 1,1 50,70  " transform="translate(0 100)" fill="red"/>
            <path d="M 50, 30   A 20,20 0 1,1 70,50  " transform="translate(50)"/>
            <path d="M 50, 30   a 20,20 0 1,1 20,20  " transform="translate(100)" fill="green"/>
            <path id="Path_1" d="M189.244,11.813 V2.5 a2.5,2.5,0,1,0-5,0 v9.314 a3.743,3.743,0,1,0,5,0Z M187.9,8.2 h-2.313 V2.5 a1.156,1.156,0,1,1,2.313,0 V8.2Z" transform="translate(-183.002)" fill="#1ad598"/>
            <path id="Path_1" d="
              M189.244,11.813
              V2.5
              a2.5,2.5,0,1,0-5,0
              v9.314
              a3.743,3.743,0,1,0,5,0
              Z
              M187.9,8.2
              h-2.313
              V2.5
              a1.156,1.156,0,1,1,2.313,0
              V8.2
              Z" transform="translate(-183.002 20)" fill="red" />
        </g>
    </g>
</svg>